Coordinates
version=1
nRows=22
nColumns=24
inDegrees=yes

Units are S.I. units (second, meters, Newtons, ...)
Angles are in degrees.

endheader
time	pelvis_tilt	pelvis_list	pelvis_rotation	pelvis_tx	pelvis_ty	pelvis_tz	hip_flexion_r	hip_adduction_r	hip_rotation_r	knee_angle_r	ankle_angle_r	subtalar_angle_r	mtp_angle_r	hip_flexion_l	hip_adduction_l	hip_rotation_l	knee_angle_l	ankle_angle_l	subtalar_angle_l	mtp_angle_l	lumbar_extension	lumbar_bending	lumbar_rotation
      4.89500000	     -9.07646701	      4.78126266	     -3.80972068	     -0.74861104	     -0.01816475	     -0.29969880	     28.13126480	     -8.86584998	     -5.32690943	    -62.06699480	    -11.53424114	     -0.83368838	     21.38179181	     14.78845632	      9.73311774	      6.88479320	    -18.85425082	      8.70641436	      0.40645862	    -12.24872263	     13.47317446	     -5.95931282	     -1.89071108
      4.90000000	     -9.06695750	      4.40835341	     -3.62159657	     -0.74288058	     -0.01743096	     -0.30023051	     28.72752136	     -8.51559710	     -5.74785003	    -61.29501975	    -10.95455041	     -0.41215843	     21.62381107	     14.07961725	      9.46304634	      7.41587941	    -18.44017992	      8.90612971	      0.18487250	    -12.63509742	     13.35562349	     -5.61278504	     -2.33811590
      4.90500000	     -9.05630233	      4.05684316	     -3.42655017	     -0.73717613	     -0.01677165	     -0.30073429	     29.30722176	     -8.18647045	     -6.16829371	    -60.46001721	    -10.36854387	      0.02629536	     21.83078147	     13.37522468	      9.20440305	      7.93423901	    -18.02446286	      9.11076288	     -0.02005505	    -13.03248442	     13.23324991	     -5.29349476	     -2.78062920
      4.91000000	     -9.05130695	      3.72504348	     -3.23408503	     -0.73150374	     -0.01619186	     -0.30120495	     29.87814622	     -7.86793843	     -6.57128954	    -59.55922402	     -9.77632592	      0.47338497	     21.99612457	     12.68571011	      8.95162061	      8.42049119	    -17.60939146	      9.31773831	     -0.19706509	    -13.41416898	     13.11928863	     -4.99820608	     -3.21098609
      4.91500000	     -9.06194929	      3.40775562	     -3.04966136	     -0.72583619	     -0.01568088	     -0.30163829	     30.44819018	     -7.55486793	     -6.96331790	    -58.58676940	     -9.20215759	      0.92503021	     22.11671935	     12.02149065	      8.69622075	      8.82795718	    -17.19159307	      9.49906248	     -0.34576963	    -13.75206308	     13.02883224	     -4.71458871	     -3.60243876
      4.92000000	     -9.04279192	      3.13727725	     -2.85379551	     -0.72023858	     -0.01526740	     -0.30202247	     30.97870287	     -7.27134696	     -7.29869861	    -57.57038202	     -8.57543561	      1.35892728	     22.19402287	     11.32188229	      8.48651932	      9.33295388	    -16.76391332	      9.72858644	     -0.49606908	    -14.14165877	     12.89541917	     -4.49511617	     -4.02879425
      4.92500000	     -9.03564956	      2.88171946	     -2.66117737	     -0.71463134	     -0.01491528	     -0.30235376	     31.49857872	     -6.99443807	     -7.62445284	    -56.47930068	     -7.95984358	      1.80100185	     22.21966928	     10.64224255	      8.27605759	      9.76401340	    -16.33579834	      9.94150411	     -0.62698384	    -14.52696010	     12.78508935	     -4.30043171	     -4.42472808
      4.93000000	     -9.03609738	      2.65333737	     -2.47827122	     -0.70904996	     -0.01465033	     -0.30263816	     32.01319858	     -6.72177018	     -7.89795869	    -55.32733625	     -7.34764640	      2.22249972	     22.19747551	      9.97582645	      8.07993549	     10.15775219	    -15.90264357	     10.14981298	     -0.73072450	    -14.88294480	     12.68223864	     -4.12840867	     -4.79738676
      4.93500000	     -9.04618844	      2.44736538	     -2.29513294	     -0.70347961	     -0.01445690	     -0.30286084	     32.51498284	     -6.45353919	     -8.13281425	    -54.10103635	     -6.74499960	      2.63249062	     22.14934567	      9.33193307	      7.89354417	     10.50239884	    -15.47969853	     10.33975438	     -0.80475901	    -15.17301100	     12.59784705	     -3.99376363	     -5.14366090
      4.94000000	     -9.03676868	      2.26522635	     -2.11400832	     -0.69794119	     -0.01432730	     -0.30306872	     32.98216623	     -6.19696221	     -8.32204217	    -52.82483716	     -6.13107423	      3.04443803	     22.01917356	      8.65781068	      7.72530181	     10.87322584	    -15.03146870	     10.53561989	     -0.88737622	    -15.49707613	     12.48187930	     -3.87732000	     -5.51129717
      4.94500000	     -9.11473699	      2.10204274	     -1.99837536	     -0.69242454	     -0.01435402	     -0.30311865	     33.54211602	     -5.89472425	     -8.41080925	    -51.47924842	     -5.60970951	      3.37958885	     21.95125535	      8.09735248	      7.54336883	     11.07887612	    -14.59179941	     10.69499164	     -0.90174881	    -15.63934189	     12.46768694	     -3.77184556	     -5.76129176
      4.95000000	     -9.05332143	      1.96426206	     -1.76683886	     -0.68689171	     -0.01430457	     -0.30333227	     33.89050189	     -5.68517760	     -8.54237214	    -50.07056256	     -4.97268852	      3.81700848	     21.69181481	      7.37804360	      7.41777270	     11.46844368	    -14.15630376	     10.88819191	     -0.95685310	    -15.91715708	     12.30083593	     -3.72596545	     -6.18017539
      4.95500000	     -9.05337590	      1.84886914	     -1.63675135	     -0.68136841	     -0.01436540	     -0.30334124	     34.31326775	     -5.40288008	     -8.51769948	    -48.62372274	     -4.37523341	      4.20165479	     21.11993871	      6.72134638	      7.28629225	     11.75954251	    -13.70592353	     11.08640647	     -1.04474953	    -16.34027607	     12.20788623	     -3.68431518	     -6.46499365
      4.96000000	     -9.10086337	      1.74616992	     -1.44879202	     -0.67591375	     -0.01456574	     -0.30339370	     34.75330081	     -5.16473033	     -8.50143895	    -47.09169619	     -3.85969525	      4.58468071	     20.95293302	      6.16188800	      7.15805185	     11.96691845	    -13.31378753	     11.27726248	     -0.93400646	    -16.40205531	     12.15156960	     -3.67477164	     -6.78973582
      4.96500000	     -9.09102260	      1.64198819	     -1.28543579	     -0.67042760	     -0.01472672	     -0.30338578	     35.09856754	     -4.89424463	     -8.41403006	    -45.49685849	     -3.37900265	      4.94868929	     20.53963160	      5.52359957	      7.01993028	     12.18173799	    -12.89285594	     11.44450750	     -0.87787036	    -16.51224470	     12.03850589	     -3.66133248	     -7.10763659
      4.97000000	     -9.22554455	      1.59304344	     -1.17220771	     -0.66500954	     -0.01512797	     -0.30329316	     35.60801885	     -4.62357891	     -8.16762743	    -43.85291746	     -3.05990221	      5.23402613	     20.38501560	      5.07557163	      6.92774191	     12.29398928	    -12.51501789	     11.58454638	     -0.79796753	    -16.51563443	     12.08258182	     -3.69023040	     -7.34577971
      4.97500000	     -9.30202360	      1.51833427	     -1.02019004	     -0.65957968	     -0.01549875	     -0.30324038	     36.00244925	     -4.35520897	     -7.93898446	    -42.14362811	     -2.75091244	      5.58003729	     20.11827839	      4.56621392	      6.80886148	     12.43471291	    -12.14286599	     11.74245651	     -0.68900363	    -16.51325100	     12.05630272	     -3.70406820	     -7.62849883
      4.98000000	     -9.14504328	      1.40254005	     -0.81513750	     -0.65402582	     -0.01563535	     -0.30316540	     36.07736609	     -4.09149738	     -7.83235487	    -40.40920868	     -2.28840682	      5.96386947	     19.15886484	      3.77026365	      6.63330243	     12.60174781	    -11.72375182	     11.95124738	     -0.47291400	    -16.55089832	     11.78249759	     -3.70617075	     -8.00053215
      4.98500000	     -9.19549171	      1.35399357	     -0.68691004	     -0.64859919	     -0.01608551	     -0.30298269	     36.40944231	     -3.81837475	     -7.48386264	    -38.68859214	     -1.95834013	      6.37985741	     18.14450841	      3.24817619	      6.52041514	     12.66742453	    -11.37882259	     12.16265194	     -0.23619729	    -16.55487161	     11.72800924	     -3.75410529	     -8.27362113
      4.99000000	     -9.32880713	      1.32734657	     -0.55816577	     -0.64314082	     -0.01668923	     -0.30284732	     36.80473924	     -3.59714899	     -7.15347619	    -36.89693699	     -1.84976745	      6.76688700	     17.83874262	      2.81940761	      6.43572226	     12.75287973	    -11.04068313	     12.32993077	     -0.06795441	    -16.51315592	     11.77411656	     -3.81538843	     -8.52706829
      4.99500000	     -9.30470499	      1.24309605	     -0.37903971	     -0.63767856	     -0.01713714	     -0.30267935	     36.96263604	     -3.33449645	     -6.82475252	    -35.05534059	     -1.71034028	      7.07580602	     17.14905918	      2.24341736	      6.27897843	     12.77613447	    -10.74603219	     12.56492322	      0.26947559	    -16.41868330	     11.63033012	     -3.84183710	     -8.86723564
      5.00000000	     -9.34309715	      1.18691887	     -0.22815691	     -0.63223347	     -0.01772349	     -0.30247043	     37.19084366	     -3.09885776	     -6.44863959	    -33.23724960	     -1.63210203	      7.47581733	     16.46378518	      1.74930138	      6.14819559	     12.77168447	    -10.47643567	     12.80724707	      0.62236878	    -16.30861355	     11.55487426	     -3.89017870	     -9.17035593
